<svg width="189" height="35" viewBox="0 0 189 35" fill="none" xmlns="http://www.w3.org/2000/svg">
<path d="M67.4469 17.2283C66.1054 19.4045 64.1976 20.6564 61.7235 20.6564C58.1465 20.6564 55.5233 17.765 55.5233 14.0389C55.5233 10.3127 58.0273 7.45111 61.7831 7.45111C64.1678 7.45111 66.3141 8.7925 67.3872 10.8195L70.845 8.0771C69.0863 4.94717 65.8967 3.06921 61.8428 3.06921C55.3444 3.06921 50.7837 7.89824 50.7837 14.0389C50.7837 20.1795 55.4338 25.0383 61.7831 25.0383C65.7775 25.0383 69.116 22.9219 70.9344 19.9112L67.4469 17.2283Z" fill="#E00000"/>
<path d="M80.4034 9.03088C75.6341 9.03088 72.2061 12.4887 72.2061 17.0197C72.2061 21.5208 75.6341 25.0382 80.4034 25.0382C85.1729 25.0382 88.6009 21.5208 88.6009 17.0197C88.6009 12.4887 85.1729 9.03088 80.4034 9.03088ZM80.4034 13.0551C82.4604 13.0551 84.0103 14.6349 84.0103 17.0197C84.0103 19.4044 82.4604 21.014 80.4034 21.014C78.3467 21.014 76.7967 19.4044 76.7967 17.0197C76.7967 14.6349 78.3467 13.0551 80.4034 13.0551Z" fill="#E00000"/>
<path d="M91.5624 9.38858V24.6805H96.0933V16.7215C96.0933 14.7243 97.1367 13.0253 99.0442 13.0253C100.714 13.0253 101.786 14.0686 101.786 16.0658V24.6805H106.318V16.7215C106.318 14.7243 107.362 13.0253 109.269 13.0253C110.938 13.0253 111.982 14.0686 111.982 16.0658V24.6805H116.512V15.3801C116.512 11.4156 114.278 9.03088 110.61 9.03088C108.017 9.03088 106.556 10.1636 105.454 11.7137C104.41 10.0145 102.741 9.03088 100.386 9.03088C98.3884 9.03088 96.8982 9.80592 95.9145 11.3559V9.38858H91.5624Z" fill="#E00000"/>
<path d="M128.4 13.0253C130.338 13.0253 131.946 14.6051 131.946 17.0792C131.946 19.464 130.338 21.0438 128.4 21.0438C126.373 21.0438 124.793 19.4938 124.793 17.0792C124.793 14.5753 126.373 13.0253 128.4 13.0253ZM124.584 9.38858H120.382V30.6423H124.912V23.0112C125.866 24.442 127.685 25.0382 129.324 25.0382C133.498 25.0382 136.508 21.5804 136.508 17.0197C136.508 12.3099 133.259 9.03088 129.354 9.03088C127.863 9.03088 125.776 9.65687 124.584 11.505V9.38858Z" fill="#E00000"/>
<path d="M147.407 15.1716L143.234 15.9763C140.014 16.662 138.255 18.2119 138.255 20.4775C138.255 23.1304 140.342 25.0382 143.323 25.0382C145.35 25.0382 146.841 24.1439 147.556 22.8025V24.6805H151.758V15.0522C151.758 11.3262 149.225 9.03088 144.963 9.03088C142.101 9.03088 139.806 10.2233 138.405 11.9223L140.76 14.784C141.684 13.7406 142.994 12.9358 144.694 12.9358C146.244 12.9358 147.407 13.5321 147.407 15.0522V15.1716ZM144.337 21.6698C143.264 21.6698 142.578 21.0736 142.578 20.2092C142.578 19.3745 143.175 18.8379 144.396 18.6294L147.436 18.0331V18.4803C147.436 20.2986 146.214 21.6698 144.337 21.6698Z" fill="#E00000"/>
<path d="M155.576 9.38858V24.6805H160.106V16.7215C160.106 14.7243 161.149 13.0253 163.118 13.0253C164.787 13.0253 165.86 14.0686 165.86 16.0658V24.6805H170.391V15.3801C170.391 11.4156 168.124 9.03088 164.458 9.03088C162.402 9.03088 160.912 9.80592 159.927 11.3559V9.38858H155.576Z" fill="#E00000"/>
<path d="M177.788 24.114L177.61 24.6208C176.954 26.7969 175.851 27.1845 174.659 27.1845C174.152 27.1845 173.377 27.1248 172.572 26.6777V30.4336C173.258 30.7615 174.241 31 175.314 31C178.206 31 180.054 29.6287 181.575 25.9324L188.251 9.38855H183.631L180.054 19.4043L176.507 9.38855H171.768L177.788 24.114Z" fill="#E00000"/>
<g filter="url(#filter0_d_104_560)">
<path d="M22.8898 1.5896H19.531C19.0661 1.5896 18.6892 2.05832 18.6892 2.63654V26.4906C18.6892 27.0688 19.0661 27.5375 19.531 27.5375H22.8898C23.3548 27.5375 23.7317 27.0688 23.7317 26.4906V2.63654C23.7317 2.05832 23.3548 1.5896 22.8898 1.5896Z" fill="#E00000"/>
</g>
<path d="M23.394 1H19.0268C18.4223 1 17.9323 1.49002 17.9323 2.0945V27.0323C17.9323 27.6369 18.4223 28.1268 19.0268 28.1268H23.394C23.9985 28.1268 24.4885 27.6369 24.4885 27.0323V2.0945C24.4885 1.49002 23.9985 1 23.394 1Z" fill="#E00000"/>
<g filter="url(#filter1_d_104_560)">
<path d="M33.2854 27.5373C36.0379 27.5373 38.2693 25.3059 38.2693 22.5534C38.2693 19.8009 36.0379 17.5696 33.2854 17.5696C30.5329 17.5696 28.3015 19.8009 28.3015 22.5534C28.3015 25.3059 30.5329 27.5373 33.2854 27.5373Z" fill="#E00000"/>
</g>
<path d="M33.2853 28.1265C36.3631 28.1265 38.8582 25.6313 38.8582 22.5534C38.8582 19.4755 36.3631 16.9805 33.2853 16.9805C30.2074 16.9805 27.7123 19.4755 27.7123 22.5534C27.7123 25.6313 30.2074 28.1265 33.2853 28.1265Z" fill="#E00000"/>
<g filter="url(#filter2_d_104_560)">
<path d="M33.2854 10.8189C35.6302 10.8189 37.5311 8.918 37.5311 6.5731C37.5311 4.22819 35.6302 2.32727 33.2854 2.32727C30.9405 2.32727 29.0396 4.22819 29.0396 6.5731C29.0396 8.918 30.9405 10.8189 33.2854 10.8189Z" fill="#E00000"/>
</g>
<path d="M33.2853 12.146C36.3631 12.146 38.8582 9.65089 38.8582 6.57301C38.8582 3.49512 36.3631 1 33.2853 1C30.2074 1 27.7123 3.49512 27.7123 6.57301C27.7123 9.65089 30.2074 12.146 33.2853 12.146Z" fill="#E00000"/>
<g filter="url(#filter3_d_104_560)">
<path d="M9.13636 27.5373C11.8888 27.5373 14.1203 25.3059 14.1203 22.5534C14.1203 19.8009 11.8888 17.5696 9.13636 17.5696C6.38382 17.5696 4.15247 19.8009 4.15247 22.5534C4.15247 25.3059 6.38382 27.5373 9.13636 27.5373Z" fill="#E00000"/>
</g>
<path d="M9.13611 28.1265C12.2139 28.1265 14.7091 25.6313 14.7091 22.5534C14.7091 19.4755 12.2139 16.9805 9.13611 16.9805C6.05823 16.9805 3.56311 19.4755 3.56311 22.5534C3.56311 25.6313 6.05823 28.1265 9.13611 28.1265Z" fill="#E00000"/>
<defs>
<filter id="filter0_d_104_560" x="14.6892" y="0.5896" width="13.0425" height="33.9479" filterUnits="userSpaceOnUse" color-interpolation-filters="sRGB">
<feFlood flood-opacity="0" result="BackgroundImageFix"/>
<feColorMatrix in="SourceAlpha" type="matrix" values="0 0 0 0 0 0 0 0 0 0 0 0 0 0 0 0 0 0 127 0" result="hardAlpha"/>
<feOffset dy="3"/>
<feGaussianBlur stdDeviation="2"/>
<feColorMatrix type="matrix" values="0 0 0 0 0.956863 0 0 0 0 0.14902 0 0 0 0 0.243137 0 0 0 0.15 0"/>
<feBlend mode="normal" in2="BackgroundImageFix" result="effect1_dropShadow_104_560"/>
<feBlend mode="normal" in="SourceGraphic" in2="effect1_dropShadow_104_560" result="shape"/>
</filter>
<filter id="filter1_d_104_560" x="24.3015" y="16.5696" width="17.9678" height="17.9678" filterUnits="userSpaceOnUse" color-interpolation-filters="sRGB">
<feFlood flood-opacity="0" result="BackgroundImageFix"/>
<feColorMatrix in="SourceAlpha" type="matrix" values="0 0 0 0 0 0 0 0 0 0 0 0 0 0 0 0 0 0 127 0" result="hardAlpha"/>
<feOffset dy="3"/>
<feGaussianBlur stdDeviation="2"/>
<feColorMatrix type="matrix" values="0 0 0 0 0.104167 0 0 0 0 0.4625 0 0 0 0 1 0 0 0 0.15 0"/>
<feBlend mode="normal" in2="BackgroundImageFix" result="effect1_dropShadow_104_560"/>
<feBlend mode="normal" in="SourceGraphic" in2="effect1_dropShadow_104_560" result="shape"/>
</filter>
<filter id="filter2_d_104_560" x="25.0396" y="1.32727" width="16.4916" height="16.4916" filterUnits="userSpaceOnUse" color-interpolation-filters="sRGB">
<feFlood flood-opacity="0" result="BackgroundImageFix"/>
<feColorMatrix in="SourceAlpha" type="matrix" values="0 0 0 0 0 0 0 0 0 0 0 0 0 0 0 0 0 0 127 0" result="hardAlpha"/>
<feOffset dy="3"/>
<feGaussianBlur stdDeviation="2"/>
<feColorMatrix type="matrix" values="0 0 0 0 1 0 0 0 0 0.80475 0 0 0 0 0.1125 0 0 0 0.3 0"/>
<feBlend mode="normal" in2="BackgroundImageFix" result="effect1_dropShadow_104_560"/>
<feBlend mode="normal" in="SourceGraphic" in2="effect1_dropShadow_104_560" result="shape"/>
</filter>
<filter id="filter3_d_104_560" x="0.152466" y="16.5696" width="17.9678" height="17.9678" filterUnits="userSpaceOnUse" color-interpolation-filters="sRGB">
<feFlood flood-opacity="0" result="BackgroundImageFix"/>
<feColorMatrix in="SourceAlpha" type="matrix" values="0 0 0 0 0 0 0 0 0 0 0 0 0 0 0 0 0 0 127 0" result="hardAlpha"/>
<feOffset dy="3"/>
<feGaussianBlur stdDeviation="2"/>
<feColorMatrix type="matrix" values="0 0 0 0 0.470588 0 0 0 0 0.172549 0 0 0 0 0.894118 0 0 0 0.15 0"/>
<feBlend mode="normal" in2="BackgroundImageFix" result="effect1_dropShadow_104_560"/>
<feBlend mode="normal" in="SourceGraphic" in2="effect1_dropShadow_104_560" result="shape"/>
</filter>
</defs>
</svg>
