<svg width="155" height="30" viewBox="0 0 155 30" fill="none" xmlns="http://www.w3.org/2000/svg">
<path d="M10.6519 29.5376H4.87298V14.9776H0.936279V10.2372H4.87282V6.86399C4.87282 2.86678 6.61396 0 12.3773 0C13.5961 0 15.5098 0.248315 15.5098 0.248315V4.65008H13.4998C11.4518 4.65008 10.6522 5.27971 10.6522 7.02039V10.2372H15.4332L15.0074 14.9776H10.652L10.6519 29.5376ZM23.9117 9.85833C23.8275 9.85833 23.7408 9.86144 23.6552 9.86361C18.2966 9.86361 15.8449 13.9374 15.8449 19.7203C15.8449 27.0051 19.0251 29.9207 23.697 29.9207C26.37 29.9207 28.1261 28.7836 29.1936 26.6615V29.5397H34.6902V10.2392H29.1936V13.2074C28.322 11.2977 26.5167 9.88096 23.9117 9.85833ZM25.3093 14.4189C27.5599 14.4189 28.9108 16.0056 28.9108 18.7044L28.9159 21.4608C28.9159 23.2797 27.8002 25.4077 25.3093 25.4077C21.4798 25.4077 21.5821 21.2286 21.5821 19.8367C21.5821 15.1544 23.6225 14.4189 25.3093 14.4189ZM36.9099 19.8904C36.9099 17.545 36.7989 9.87089 46.6915 9.87089C50.6625 9.87089 52.3206 11.1471 52.3206 11.1471L50.988 15.3248C50.988 15.3248 49.3319 14.4032 47.1741 14.4032C44.4103 14.4032 42.6468 16.0225 42.6468 18.8716L42.6499 20.9145C42.6499 23.6522 44.3514 25.4797 47.1798 25.4797C49.1456 25.4797 50.9574 24.5494 50.9574 24.5494L52.2867 28.6399C52.2867 28.6399 50.7707 29.9241 46.7192 29.9241C37.2999 29.9241 36.9101 23.0389 36.9101 19.8904H36.9099ZM84.549 9.86361C89.9077 9.86361 92.398 13.9374 92.398 19.7203C92.398 27.0051 89.2178 29.9207 84.5458 29.9207C81.8728 29.9207 79.8969 28.7837 78.8294 26.6615V29.5397L73.4021 29.5375V0.586841L79.1646 0.0788965V12.9458C79.9962 10.6948 82.7295 9.86361 84.5492 9.86361H84.549ZM82.9335 14.4189C80.6829 14.4189 79.1646 16.0056 79.1646 18.7044L79.1592 21.4608C79.1558 23.2797 80.2107 25.4077 82.9335 25.4077C86.7629 25.4077 86.6607 21.2286 86.6607 19.8367C86.6607 15.1544 84.6205 14.4189 82.9335 14.4189ZM62.319 9.87957C56.2412 9.87957 53.0326 13.2287 53.0326 19.1806V20.2863C53.0326 28.0112 57.5386 30 62.9106 30C68.1322 30 70.4957 28.5239 70.4957 28.5239L69.4174 24.593C69.4174 24.593 66.6372 25.7887 63.6015 25.7887C60.4544 25.7887 59.1011 24.978 58.7542 21.9212H70.9564V18.7678C70.9564 12.3115 67.3552 9.87942 62.3189 9.87942L62.319 9.87957ZM62.4656 13.8157C64.5694 13.8157 65.9326 15.1196 65.8578 18.1436H58.7647C58.8878 14.9609 60.3578 13.8158 62.4656 13.8158V13.8157ZM103.888 9.85307C97.6467 9.85307 94.3609 13.4079 94.3609 19.7784C94.3609 28.519 100.025 29.9259 103.899 29.9259C109.569 29.9259 113.343 26.8403 113.343 19.8578C113.343 12.5901 109.1 9.85307 103.888 9.85307ZM103.81 14.4348C106.554 14.4348 107.641 16.5108 107.641 18.8737V20.9054C107.641 23.768 106.12 25.4237 103.799 25.4237C101.629 25.4237 100.103 23.875 100.103 20.9054V18.8737C100.103 15.7068 101.918 14.4348 103.81 14.4348ZM124.822 9.85307C118.581 9.85307 115.294 13.4079 115.294 19.7784C115.294 28.519 120.959 29.9259 124.832 29.9259C130.503 29.9259 134.276 26.8403 134.276 19.8578C134.276 12.5901 130.034 9.85307 124.822 9.85307ZM124.743 14.4348C127.488 14.4348 128.575 16.5108 128.575 18.8737V20.9054C128.575 23.768 127.054 25.4237 124.733 25.4237C122.563 25.4237 121.038 23.875 121.038 20.9054V18.8737C121.038 15.7068 122.852 14.4348 124.743 14.4348ZM136.453 29.5376V0.586841L142.233 0.0788965V19.4835L147.967 10.2372H154.07L148.089 19.8137L154.3 29.5376H148.179L142.233 20.0959V29.5376H136.453Z" fill="#2D88FF"/>
</svg>
