<svg width="49" height="50" viewBox="0 0 49 50" fill="none" xmlns="http://www.w3.org/2000/svg">
<path d="M36.9803 28.4242H29.7366V24.3258C29.7366 23.4879 29.7366 22.086 29.0081 20.8411C28.1034 19.2955 26.4245 18.5118 24.018 18.5118C23.7146 18.5118 23.4237 18.6323 23.2092 18.8468C22.9947 19.0613 22.8742 19.3522 22.8742 19.6556V25.5267L20.8267 28.8541L18.2993 30.5049V29.5679C18.2993 29.2646 18.1788 28.9737 17.9643 28.7592C17.7498 28.5447 17.4589 28.4242 17.1556 28.4242H9.53067C9.22733 28.4242 8.93642 28.5447 8.72192 28.7592C8.50743 28.9737 8.38693 29.2646 8.38693 29.5679V47.8677C8.38693 48.171 8.50743 48.4619 8.72192 48.6764C8.93642 48.8909 9.22733 49.0114 9.53067 49.0114H17.1556C17.352 49.0114 17.545 48.9607 17.7161 48.8642C17.8872 48.7677 18.0305 48.6287 18.1321 48.4607C18.7633 48.8221 19.4782 49.012 20.2055 49.0114H35.4553C36.0733 49.0119 36.6799 48.8453 37.2109 48.5293C37.742 48.2134 38.1778 47.7597 38.4723 47.2164C38.7667 46.6731 38.9088 46.0603 38.8836 45.4429C38.8584 44.8254 38.6668 44.2263 38.329 43.7088C38.4398 43.6224 38.5452 43.5294 38.6449 43.4305C39.2012 42.8744 39.5493 42.1438 39.6306 41.3614C39.712 40.579 39.5216 39.7925 39.0915 39.1338C39.2022 39.0474 39.3077 38.9545 39.4074 38.8555C40.0274 38.2357 40.3862 37.4018 40.4102 36.5254C40.4341 35.6491 40.1213 34.7969 39.536 34.1441C39.9779 33.6506 40.2675 33.0396 40.3697 32.3851C40.472 31.7306 40.3826 31.0605 40.1124 30.4556C39.8421 29.8508 39.4026 29.3372 38.8468 28.9767C38.291 28.6162 37.6427 28.4243 36.9803 28.4242ZM16.0118 46.7239H10.6744V30.7117H16.0118V46.7239ZM36.2654 46.388C36.1593 46.4947 36.033 46.5793 35.894 46.637C35.7549 46.6947 35.6058 46.7242 35.4553 46.7239H20.2055C19.7001 46.7234 19.2156 46.5223 18.8583 46.165C18.5009 45.8076 18.2999 45.3231 18.2993 44.8177V33.2374L22.4512 30.526C22.582 30.4396 22.6939 30.3276 22.7801 30.1967C22.8663 30.0658 22.9251 29.9187 22.9528 29.7645L24.9924 26.4507C25.1033 26.2703 25.1619 26.0626 25.1617 25.8508V20.8851C27.2565 21.2415 27.4492 22.6595 27.4492 24.3258V29.5679C27.4492 29.8713 27.5697 30.1622 27.7842 30.3767C27.9986 30.5912 28.2896 30.7117 28.5929 30.7117H36.9803C37.2836 30.7117 37.5745 30.8322 37.789 31.0467C38.0035 31.2611 38.124 31.5521 38.124 31.8554C38.124 32.1587 38.0035 32.4496 37.789 32.6641C37.5745 32.8786 37.2836 32.9991 36.9803 32.9991H34.6928C34.3895 32.9991 34.0986 33.1196 33.8841 33.3341C33.6696 33.5486 33.5491 33.8395 33.5491 34.1429C33.5491 34.4462 33.6696 34.7371 33.8841 34.9516C34.0986 35.1661 34.3895 35.2866 34.6928 35.2866H36.9803C37.2836 35.2866 37.5745 35.4071 37.789 35.6216C38.0035 35.8361 38.124 36.127 38.124 36.4303C38.124 36.7337 38.0035 37.0246 37.789 37.2391C37.5745 37.4536 37.2836 37.5741 36.9803 37.5741H34.6928C34.3895 37.5741 34.0986 37.6946 33.8841 37.9091C33.6696 38.1235 33.5491 38.4145 33.5491 38.7178C33.5491 39.0211 33.6696 39.3121 33.8841 39.5265C34.0986 39.741 34.3895 39.8615 34.6928 39.8615H36.2178C36.5211 39.8615 36.812 39.982 37.0265 40.1965C37.241 40.411 37.3615 40.7019 37.3615 41.0053C37.3615 41.3086 37.241 41.5995 37.0265 41.814C36.812 42.0285 36.5211 42.149 36.2178 42.149H34.6928C34.3895 42.149 34.0986 42.2695 33.8841 42.484C33.6696 42.6985 33.5491 42.9894 33.5491 43.2927C33.5491 43.5961 33.6696 43.887 33.8841 44.1015C34.0986 44.316 34.3895 44.4365 34.6928 44.4365H35.4553C35.6814 44.4364 35.9025 44.5033 36.0906 44.6289C36.2787 44.7544 36.4253 44.9328 36.512 45.1417C36.5987 45.3505 36.6216 45.5804 36.5777 45.8022C36.5338 46.024 36.4251 46.2279 36.2654 46.388Z" fill="#00E1BE"/>
<path d="M13.3449 46.057C13.9763 46.057 14.4882 45.5451 14.4882 44.9136C14.4882 44.2822 13.9763 43.7703 13.3449 43.7703C12.7134 43.7703 12.2015 44.2822 12.2015 44.9136C12.2015 45.5451 12.7134 46.057 13.3449 46.057Z" fill="#00E1BE"/>
<path d="M19.4131 10.7383L18.7173 14.7938C18.6812 15.0042 18.7047 15.2204 18.7852 15.4181C18.8656 15.6158 18.9997 15.787 19.1724 15.9124C19.345 16.0379 19.5493 16.1125 19.7622 16.1279C19.9751 16.1432 20.188 16.0988 20.3769 15.9994L24.0191 14.0847L27.6611 15.9994C28.459 16.4538 29.506 15.6944 29.3207 14.7938L28.6249 10.7383L31.5715 7.86616C31.7243 7.7172 31.8324 7.52845 31.8836 7.32126C31.9347 7.11408 31.9269 6.89672 31.8609 6.69375C31.795 6.49079 31.6736 6.31033 31.5104 6.17277C31.3473 6.0352 31.1489 5.94603 30.9377 5.91533L26.8657 5.32364L25.0447 1.63405C24.9503 1.44266 24.8042 1.28152 24.6229 1.16885C24.4417 1.05617 24.2325 0.99646 24.0191 0.99646C23.8057 0.99646 23.5965 1.05617 23.4152 1.16885C23.234 1.28152 23.0879 1.44266 22.9934 1.63405L21.1724 5.32364L17.1004 5.91533C16.8893 5.94603 16.6909 6.0352 16.5277 6.17277C16.3646 6.31033 16.2432 6.49079 16.1772 6.69375C16.1113 6.89672 16.1034 7.11408 16.1546 7.32126C16.2057 7.52845 16.3138 7.7172 16.4666 7.86616L19.4131 10.7383ZM22.0964 7.50083C22.2799 7.47417 22.4541 7.40329 22.6041 7.2943C22.7542 7.18531 22.8754 7.04148 22.9575 6.87521L24.0191 4.72423L25.0806 6.87521C25.1627 7.04148 25.284 7.18531 25.434 7.2943C25.584 7.40329 25.7583 7.47417 25.9418 7.50083L28.315 7.84576L26.5978 9.52C26.465 9.64943 26.3657 9.8092 26.3084 9.98555C26.2511 10.1619 26.2376 10.3495 26.2689 10.5323L26.6743 12.896L24.5513 11.78C24.3872 11.6937 24.2045 11.6486 24.0191 11.6486C23.8336 11.6486 23.651 11.6937 23.4869 11.78L21.3638 12.896L21.7693 10.5323C21.8006 10.3495 21.787 10.1619 21.7297 9.98555C21.6724 9.8092 21.5731 9.64943 21.4403 9.52L19.7227 7.84576L22.0964 7.50083Z" fill="#00E1BE"/>
<path d="M47.5657 17.9793L44.2737 15.5107L44.441 11.3993C44.4497 11.186 44.3986 10.9745 44.2933 10.7888C44.1881 10.6031 44.033 10.4505 43.8455 10.3484C43.6581 10.2462 43.4458 10.1986 43.2327 10.2108C43.0196 10.223 42.8142 10.2947 42.6396 10.4176L39.275 12.7856L35.4165 11.3559C35.2164 11.2818 34.9995 11.2651 34.7904 11.3078C34.5813 11.3505 34.3884 11.4508 34.2333 11.5974C34.0783 11.7441 33.9674 11.9311 33.9131 12.1375C33.8588 12.3439 33.8633 12.5613 33.9262 12.7653L35.1385 16.6974L32.5866 19.9253C32.4542 20.0927 32.3714 20.2939 32.3473 20.5059C32.3233 20.718 32.3591 20.9325 32.4506 21.1253C32.5422 21.3181 32.6858 21.4814 32.8654 21.5968C33.0449 21.7122 33.2531 21.7751 33.4665 21.7783L37.5807 21.8403L39.8621 25.2649C40.3495 26.0476 41.6269 25.8788 41.8962 25.0006L43.2267 21.1068L47.1884 19.9954C47.3939 19.9377 47.5792 19.8238 47.7232 19.6663C47.8673 19.5089 47.9644 19.3143 48.0037 19.1045C48.0429 18.8948 48.0227 18.6782 47.9453 18.4793C47.8679 18.2805 47.7364 18.1072 47.5657 17.9792V17.9793ZM42.0298 19.0666C41.8513 19.1167 41.6876 19.2094 41.5529 19.3368C41.4182 19.4643 41.3164 19.6225 41.2565 19.798L40.4808 22.068L39.1511 20.0718C39.0483 19.9175 38.9095 19.7905 38.7467 19.7017C38.5839 19.6129 38.4019 19.565 38.2165 19.5622L35.8182 19.526L37.3058 17.6444C37.4208 17.499 37.4987 17.3277 37.5328 17.1454C37.5669 16.9632 37.5562 16.7753 37.5015 16.5981L36.7949 14.3061L39.0442 15.1395C39.2181 15.2039 39.4051 15.2251 39.589 15.2012C39.7729 15.1773 39.9482 15.109 40.0999 15.0022L42.0614 13.6218L41.9639 16.0184C41.9563 16.2037 41.994 16.388 42.0735 16.5555C42.1531 16.723 42.2722 16.8687 42.4205 16.9799L44.3395 18.4191L42.0298 19.0666Z" fill="#00E1BE"/>
<path d="M14.5748 21.7784C15.4942 21.7944 16.0481 20.6277 15.4547 19.9254L12.9029 16.6975L14.1151 12.7654C14.178 12.5614 14.1826 12.344 14.1283 12.1376C14.074 11.9312 13.9631 11.7441 13.8081 11.5975C13.653 11.4508 13.46 11.3505 13.2509 11.3078C13.0418 11.2651 12.825 11.2818 12.6248 11.3559L8.76637 12.7856L5.40189 10.4176C5.22737 10.2947 5.02193 10.223 4.80881 10.2108C4.5957 10.1986 4.38342 10.2462 4.19598 10.3484C4.00855 10.4505 3.85344 10.6031 3.7482 10.7888C3.64296 10.9745 3.5918 11.186 3.60051 11.3993L3.76778 15.5107L0.475826 17.9793C0.305101 18.1073 0.173602 18.2806 0.0961979 18.4794C0.0187939 18.6783 -0.00142748 18.8949 0.03782 19.1046C0.0770675 19.3144 0.174218 19.509 0.318288 19.6664C0.462358 19.8239 0.647599 19.9378 0.853068 19.9955L4.81487 21.1069L6.14512 25.0007C6.41447 25.879 7.69193 26.0476 8.17925 25.265L10.4606 21.8404L14.5748 21.7784ZM8.89018 20.0723L7.56049 22.068L6.78495 19.7984C6.72499 19.6229 6.62327 19.4646 6.48854 19.3372C6.35382 19.2098 6.19013 19.1171 6.01159 19.067L3.70211 18.4188L5.6211 16.9797C5.76946 16.8684 5.88854 16.7228 5.96809 16.5553C6.04764 16.3878 6.08527 16.2034 6.07774 16.0182L5.98023 13.6216L7.94174 15.0023C8.09339 15.1091 8.26872 15.1774 8.45263 15.2013C8.63654 15.2252 8.8235 15.204 8.9974 15.1396L11.2467 14.3062L10.5398 16.598C10.4852 16.7752 10.4744 16.9631 10.5085 17.1453C10.5426 17.3276 10.6205 17.4989 10.7355 17.6444L12.2231 19.5259L9.8248 19.5621C9.63936 19.5649 9.45739 19.6128 9.29457 19.7016C9.13175 19.7904 8.99296 19.9175 8.89018 20.0718V20.0723Z" fill="#00E1BE"/>
</svg>
