<svg width="106" height="112" viewBox="0 0 106 112" fill="none" xmlns="http://www.w3.org/2000/svg">
<path d="M49.0168 2.29969C51.4816 0.876637 54.5184 0.876636 56.9832 2.29969L94.2919 23.8399C96.7567 25.263 98.2751 27.8929 98.2751 30.739V73.8194C98.2751 76.6655 96.7567 79.2954 94.2919 80.7185L56.9832 102.259C54.5184 103.682 51.4816 103.682 49.0168 102.259L11.7081 80.7185C9.24329 79.2954 7.72491 76.6655 7.72491 73.8194V30.739C7.72491 27.8929 9.24328 25.263 11.7081 23.8399L49.0168 2.29969Z" fill="url(#paint0_linear_1_10)" fill-opacity="0.2"/>
<path d="M86.5281 52.9843C77.9865 47.1988 69.0081 44.3705 59.8454 44.5791C51.3773 44.7718 42.4659 47.5766 33.3603 52.9163C32.7596 53.2685 32.3903 53.9131 32.3903 54.6098V77.7213C32.3903 81.8117 33.0007 85.49 34.2042 88.6557C35.6099 92.354 37.8298 95.3689 40.8017 97.617L58.7196 111.171C59.0695 111.436 59.4858 111.568 59.9026 111.568C60.3189 111.568 60.7357 111.435 61.0861 111.171L78.9881 97.615C81.9569 95.3669 84.1748 92.353 85.579 88.6562C86.7809 85.4926 87.3903 81.8163 87.3903 77.7284V54.6098C87.3903 53.958 87.0675 53.3492 86.5281 52.9843V52.9843ZM83.4674 77.7284C83.4674 85.4072 81.1637 91.0449 76.6211 94.4846L59.9021 107.144L43.1677 94.4856C38.6195 91.0449 36.3133 85.4047 36.3133 77.7213V55.7441C53.301 46.1136 68.7471 46.0865 83.4674 55.6628V77.7284Z" fill="#00E1BE"/>
<path d="M58.6292 58.0542L45.0667 70.1344C44.2544 70.8584 44.1601 72.1294 44.8563 72.9735C45.5531 73.8177 46.7762 73.9157 47.5885 73.1916L48.2747 72.5803V85.556C48.2747 86.6675 49.1425 87.5693 50.2122 87.5693H69.5675C70.6376 87.5693 71.505 86.6675 71.505 85.556V72.5803L72.1917 73.1916C72.557 73.5172 73.0055 73.6766 73.4515 73.6766C73.9975 73.6766 74.5404 73.4381 74.9233 72.9735C75.6201 72.1294 75.5258 70.8584 74.7134 70.1344L71.505 67.2769V62.4684C71.505 61.3568 70.6376 60.455 69.5675 60.455C68.4978 60.455 67.63 61.3568 67.63 62.4684V63.8253L61.151 58.0542C60.4254 57.4077 59.3548 57.4077 58.6292 58.0542V58.0542ZM67.6305 83.5426H52.1497C52.1497 83.5426 52.1351 69.3023 52.1073 69.167L59.8901 62.2351L67.6497 69.146C67.6381 69.2336 67.6305 83.5426 67.6305 83.5426Z" fill="#00E1BE"/>
<defs>
<linearGradient id="paint0_linear_1_10" x1="-60.0226" y1="132.441" x2="92.7477" y2="28.1835" gradientUnits="userSpaceOnUse">
<stop stop-color="#003478"/>
<stop offset="1" stop-color="white"/>
</linearGradient>
</defs>
</svg>
