<svg width="50" height="50" viewBox="0 0 50 50" fill="none" xmlns="http://www.w3.org/2000/svg">
<path d="M25.0198 12.261C24.5023 12.261 24.0823 12.681 24.0823 13.1985C24.0823 13.716 24.5023 14.136 25.0198 14.136C25.5373 14.136 25.9573 13.716 25.9573 13.1985C25.9573 12.681 25.5373 12.261 25.0198 12.261Z" fill="#00E1BE" stroke="#00E1BE" stroke-width="0.298738"/>
<path d="M1.4785 23.3784C1.78881 23.561 2.176 23.5497 2.47506 23.3495C5.50807 21.3208 10.071 21.2919 13.1493 23.2646C13.3155 23.4147 13.535 23.5068 13.7766 23.5068C13.78 23.5068 13.7834 23.5063 13.7868 23.5063C13.9745 23.51 14.163 23.4586 14.326 23.3495C17.2779 21.3748 21.0539 21.2889 24.0788 23.0886C24.0788 24.0274 24.0788 42.7159 24.0788 44.3204C24.0788 46.9101 26.1767 49.0079 28.7664 49.0079C31.351 49.0079 33.4539 46.9051 33.4539 44.3204V40.5704C33.4539 40.0527 33.034 39.6329 32.5164 39.6329C31.9987 39.6329 31.5789 40.0527 31.5789 40.5704V44.3204C31.5789 45.8712 30.3172 47.1329 28.7664 47.1329C27.2128 47.1329 25.9538 45.8739 25.9538 44.3204C25.9538 42.7035 25.9538 24.0186 25.9538 23.0886C28.9787 21.2888 32.7548 21.3749 35.7066 23.3496C35.8646 23.4553 36.0462 23.5078 36.2279 23.5078C36.2343 23.5078 36.2406 23.5066 36.247 23.5064C36.25 23.5064 36.253 23.5069 36.2561 23.5069C36.4976 23.5069 36.717 23.4148 36.8832 23.2648C39.9615 21.2921 44.5245 21.3209 47.5577 23.3495C47.8569 23.5497 48.2443 23.5608 48.5543 23.3784C48.8645 23.1959 49.0428 22.852 49.0133 22.4933C48.0239 10.4976 37.3513 1.00781 25.0164 1.00781C12.6882 1.00781 2.00959 10.4903 1.01959 22.4933C0.990062 22.852 1.16837 23.1959 1.4785 23.3784ZM25.9539 20.9675V16.9453C25.9539 16.4276 25.5341 16.0078 25.0164 16.0078C24.4988 16.0078 24.0789 16.4276 24.0789 16.9453V20.9674C21.1322 19.5837 17.7359 19.5764 14.7847 20.9469C15.3902 11.4648 19.3294 3.86607 24.0789 2.97207V9.44533C24.0789 9.96301 24.4988 10.3828 25.0164 10.3828C25.5341 10.3828 25.9539 9.96301 25.9539 9.44533V2.97207C30.7035 3.86607 34.6427 11.4649 35.2481 20.9469C32.297 19.5763 28.9008 19.5837 25.9539 20.9675ZM46.9183 20.8835C45.4728 20.2651 43.8413 19.9332 42.1724 19.9308C42.1662 19.9308 42.1602 19.9308 42.1542 19.9308C40.3784 19.9308 38.6442 20.3051 37.1306 20.9999C36.783 15.1125 34.984 7.78726 30.8369 3.67594C38.9682 5.92079 45.4874 12.6918 46.9183 20.8835ZM19.196 3.67585C15.0481 7.78801 13.25 15.1116 12.9022 20.9998C9.87523 19.6104 6.16291 19.5793 3.11453 20.8835C4.54544 12.6918 11.0647 5.92079 19.196 3.67585Z" fill="#00E1BE" stroke="#00E1BE" stroke-width="0.298738"/>
<path d="M11.4263 41.4396C11.0257 41.4396 10.5933 41.1877 10.2089 40.7305C9.87566 40.334 9.28419 40.2829 8.88801 40.6161C8.49163 40.9493 8.44054 41.5407 8.77372 41.9369C9.27491 42.5332 9.86423 42.9486 10.4888 43.158V44.2521C10.4888 44.7698 10.9085 45.1896 11.4263 45.1896C11.9441 45.1896 12.3638 44.7698 12.3638 44.2521V43.1533C13.4549 42.7663 14.2388 41.7243 14.2388 40.5021C14.2388 38.9513 12.9771 37.6896 11.4263 37.6896C10.9094 37.6896 10.4888 37.269 10.4888 36.7521C10.4888 36.2351 10.9094 35.8146 11.4263 35.8146C11.7584 35.8146 12.1091 35.9841 12.4403 36.3046C12.8124 36.6647 13.406 36.6549 13.7659 36.2829C14.1259 35.9107 14.1162 35.3172 13.7441 34.9571C13.2683 34.4967 12.7922 34.2364 12.3637 34.0942V33.0021C12.3637 32.4844 11.944 32.0646 11.4262 32.0646C10.9084 32.0646 10.4887 32.4844 10.4887 33.0021V34.1008C9.39754 34.4878 8.61369 35.5299 8.61369 36.7521C8.61369 38.3029 9.87538 39.5646 11.4262 39.5646C11.9431 39.5646 12.3637 39.9851 12.3637 40.5021C12.3637 41.019 11.9432 41.4396 11.4263 41.4396Z" fill="#00E1BE" stroke="#00E1BE" stroke-width="0.298738"/>
<path d="M11.3289 49.0074C17.0153 49.0074 21.6414 44.3812 21.6414 38.6948C21.6414 33.0085 17.0153 28.3823 11.3289 28.3823C5.64261 28.3823 1.01642 33.0085 1.01642 38.6948C1.01642 44.3812 5.64261 49.0074 11.3289 49.0074ZM11.3289 30.2573C15.9814 30.2573 19.7664 34.0424 19.7664 38.6948C19.7664 43.3473 15.9814 47.1324 11.3289 47.1324C6.67649 47.1324 2.89142 43.3473 2.89142 38.6948C2.89142 34.0424 6.67649 30.2573 11.3289 30.2573Z" fill="#00E1BE" stroke="#00E1BE" stroke-width="0.298738"/>
</svg>
