<svg width="46" height="49" viewBox="0 0 46 49" fill="none" xmlns="http://www.w3.org/2000/svg">
<path d="M16.636 15.2337C16.636 18.5434 19.455 21.2361 22.92 21.2361C26.385 21.2361 29.2039 18.5434 29.2039 15.2337C29.2039 14.4223 28.5309 13.7621 27.7037 13.7621H18.1362C17.309 13.7621 16.636 14.4223 16.636 15.2337ZM27.308 15.6371C27.0906 17.7243 25.2056 19.3611 22.9199 19.3611C20.6342 19.3611 18.7491 17.7243 18.5317 15.6371H27.308Z" fill="#00E1BE"/>
<path d="M18.5179 7.87665C17.5192 7.87665 16.5803 8.2659 15.8743 8.97268C15.5084 9.33896 15.5087 9.93249 15.875 10.2984C16.2412 10.6643 16.8349 10.664 17.2007 10.2977C17.5526 9.94552 18.0204 9.75156 18.5179 9.75156C19.0153 9.75156 19.4831 9.94552 19.8351 10.2977C20.0182 10.481 20.2582 10.5727 20.4983 10.5727C20.7381 10.5727 20.9778 10.4812 21.1608 10.2984C21.5271 9.93249 21.5273 9.33896 21.1614 8.97268C20.4555 8.2659 19.5166 7.87665 18.5179 7.87665Z" fill="#00E1BE"/>
<path d="M26.0107 10.3634C26.3625 10.0112 26.8302 9.81723 27.3277 9.81723C27.8251 9.81723 28.2929 10.0112 28.6449 10.3634C29.0108 10.7297 29.6043 10.73 29.9706 10.3641C30.3369 9.99817 30.3371 9.40464 29.9712 9.03835C29.2652 8.33148 28.3263 7.94232 27.3276 7.94232C26.329 7.94232 25.3901 8.33157 24.6841 9.03835C24.3182 9.40464 24.3186 9.99826 24.6849 10.3642C24.868 10.547 25.1077 10.6384 25.3474 10.6384C25.5875 10.6383 25.8276 10.5467 26.0107 10.3634Z" fill="#00E1BE"/>
<path d="M45.7734 26.941L44.2454 13.6626C44.0309 11.8028 42.5295 10.4638 40.7503 10.5512C38.9974 10.6395 37.6643 12.0764 37.5806 13.9681L37.201 22.6041C36.0604 22.2979 34.7904 22.5883 33.8934 23.4789L31.4227 25.9309C29.3316 28.0018 27.3965 30.348 27.3965 33.4662V40.3794C26.2491 40.5892 25.3763 41.5962 25.3763 42.804V45.5516C25.3763 46.911 26.4817 48.0171 27.8402 48.0171H38.4189C39.776 48.0171 40.8801 46.9111 40.8801 45.5516V42.804C40.8801 41.5964 40.0086 40.5894 38.8626 40.3795V38.9987C38.8626 37.5261 39.627 36.4135 42.2713 34.038C44.4019 32.1205 46.2422 30.4642 45.7734 26.941ZM39.0052 45.5516C39.0052 45.8717 38.7367 46.1422 38.4189 46.1422H27.8402C27.521 46.1422 27.2512 45.8717 27.2512 45.5516V42.804C27.2512 42.4839 27.521 42.2135 27.8402 42.2135H38.4189C38.7367 42.2135 39.0052 42.4839 39.0052 42.804V45.5516ZM41.0178 32.6437C38.2872 35.0967 36.9877 36.6733 36.9877 38.9986V40.3385H29.2714V33.4661C29.2714 31.1705 30.6588 29.3261 32.7427 27.2623L35.2143 24.8095C35.8209 24.207 36.8042 24.2098 37.4062 24.8155C38.0073 25.4207 38.0033 26.4065 37.398 27.0125L33.6071 30.7992C33.2408 31.1651 33.2405 31.7587 33.6064 32.125C33.9723 32.4913 34.5659 32.4917 34.9322 32.1258L38.7238 28.3384C39.9526 27.1082 40.0532 25.1675 39.024 23.825L39.4537 14.0506C39.488 13.2753 39.9768 12.4674 40.8428 12.4237C41.6197 12.3843 42.2829 13.011 42.3827 13.8771L43.9118 27.1638C43.9124 27.1696 43.9132 27.1753 43.9139 27.1811C44.2411 29.6215 43.2043 30.676 41.0178 32.6437Z" fill="#00E1BE"/>
<path d="M18.4548 40.3796V33.4663C18.4548 30.3483 16.5198 28.002 14.429 25.9313L11.9554 23.4791C11.0592 22.5893 9.78948 22.2992 8.64807 22.6056L8.27063 13.968C8.18691 12.0767 6.85397 10.6398 5.09907 10.5512C3.31969 10.4636 1.81754 11.8028 1.60313 13.6629L0.0750029 26.9417C-0.39131 30.4688 1.44928 32.1231 3.58041 34.0388C6.22416 36.4136 6.9886 37.5263 6.9886 38.9988V40.3796C5.8426 40.5895 4.971 41.5965 4.971 42.8042V45.5518C4.971 46.9112 6.0751 48.0173 7.43223 48.0173H18.011C19.3681 48.0173 20.4722 46.9113 20.4722 45.5518V42.8042C20.4723 41.5965 19.6008 40.5896 18.4548 40.3796ZM4.83366 32.6441C2.64638 30.678 1.60941 29.6244 1.93472 27.1806C1.93547 27.1749 1.93622 27.1695 1.93679 27.164L3.46585 13.8775C3.5656 13.0111 4.22822 12.3852 5.00654 12.4238C5.87438 12.4676 6.36319 13.2755 6.39751 14.0503L6.82463 23.8251C5.79441 25.1684 5.89641 27.1097 7.1281 28.3392L10.9189 32.1259C11.2853 32.4917 11.8787 32.4915 12.2447 32.1251C12.6106 31.7588 12.6102 31.1652 12.2439 30.7993L8.45298 27.0125C7.84585 26.4063 7.84107 25.4209 8.44144 24.8166C9.04463 24.2112 10.0283 24.2079 10.6348 24.8101L13.1092 27.2632C15.1924 29.3262 16.5797 31.1707 16.5797 33.4662V40.3387H8.86351V38.9988C8.8636 36.6736 7.56404 35.0969 4.83366 32.6441ZM18.5974 45.5518C18.5974 45.8719 18.3289 46.1424 18.0111 46.1424H7.43232C7.11451 46.1424 6.84601 45.8719 6.84601 45.5518V42.8042C6.84601 42.4841 7.11451 42.2137 7.43232 42.2137H18.0111C18.3289 42.2137 18.5974 42.4841 18.5974 42.8042V45.5518Z" fill="#00E1BE"/>
<path d="M31.7223 3.66484C29.9197 1.86043 27.6448 0.667927 25.1436 0.216333C22.7005 -0.224854 20.211 0.0653957 17.9442 1.0554C17.4699 1.26268 17.2531 1.81524 17.4604 2.28971C17.6677 2.76408 18.2203 2.98102 18.6947 2.77355C22.7071 1.02127 27.3001 1.89099 30.3958 4.9899C34.5178 9.11612 34.5179 15.8278 30.3956 19.9518C28.4008 21.9498 25.7482 23.0503 22.9264 23.0508C22.9257 23.0508 22.9255 23.0508 22.9247 23.0508C20.1025 23.0508 17.4483 21.9499 15.4516 19.9513C12.3576 16.8566 11.4866 12.2608 13.2326 8.24312C13.4391 7.76837 13.2214 7.21609 12.7465 7.00974C12.272 6.80331 11.7195 7.0209 11.5132 7.49584C10.5272 9.7645 10.2392 12.2548 10.6803 14.6973C11.1321 17.199 12.3234 19.4741 14.1255 21.2765C16.4763 23.6298 19.6012 24.9256 22.9248 24.9256H22.9268C26.2497 24.925 29.3735 23.629 31.7221 21.2767C36.5743 16.4226 36.5744 8.52184 31.7223 3.66484Z" fill="#00E1BE"/>
<path d="M14.7873 5.26473C15.0272 5.26473 15.2671 5.17313 15.4502 4.99013L15.4528 4.98751C15.8189 4.62141 15.8175 4.0292 15.4514 3.6631C15.0852 3.29701 14.4903 3.29841 14.1243 3.66441C13.7582 4.03051 13.7582 4.62413 14.1243 4.99023C14.3075 5.17313 14.5473 5.26473 14.7873 5.26473Z" fill="#00E1BE"/>
</svg>
