<svg width="106" height="112" viewBox="0 0 106 112" fill="none" xmlns="http://www.w3.org/2000/svg">
<path d="M49.0168 2.29969C51.4816 0.876637 54.5184 0.876636 56.9832 2.29969L94.2919 23.8399C96.7567 25.263 98.2751 27.8929 98.2751 30.739V73.8194C98.2751 76.6655 96.7567 79.2954 94.2919 80.7185L56.9832 102.259C54.5184 103.682 51.4816 103.682 49.0168 102.259L11.7081 80.7185C9.24329 79.2954 7.72491 76.6655 7.72491 73.8194V30.739C7.72491 27.8929 9.24328 25.263 11.7081 23.8399L49.0168 2.29969Z" fill="url(#paint0_linear_1_137)" fill-opacity="0.2"/>
<path d="M91.3452 74.7764C90.042 66.6219 85.8597 59.1491 79.5688 53.7347C73.7282 48.708 66.395 45.7572 58.7298 45.309V41.5679H54.6282V45.309C46.9629 45.7572 39.6293 48.708 33.7892 53.7347C27.4983 59.1491 23.3159 66.6219 22.0127 74.7764L21.633 77.1507H26.3063L26.8908 76.0887C28.4528 73.2513 31.4309 71.4887 34.6635 71.4887C37.8966 71.4887 40.8747 73.2513 42.4367 76.0887L43.0212 77.1507H48.3218L48.9063 76.0887C50.4683 73.2513 53.4464 71.4887 56.679 71.4887C59.9116 71.4887 62.8902 73.2513 64.4517 76.0887L65.0362 77.1507H70.3372L70.9217 76.0887C72.4832 73.2513 75.4618 71.4887 78.6945 71.4887C81.9271 71.4887 84.9057 73.2513 86.4672 76.0887L87.0517 77.1507H91.7249L91.3452 74.7764ZM34.6635 67.3871C32.1207 67.3871 29.686 68.1325 27.6229 69.4668C31.3902 59.2983 40.2084 51.8695 50.9025 49.8796C47.9731 53.4759 45.8517 58.2037 44.6688 63.8497C44.0956 66.585 43.8293 69.1005 43.71 71.0673C41.3218 68.7422 38.0913 67.3871 34.6635 67.3871ZM56.679 67.3871C53.3485 67.3871 50.2041 68.6662 47.8373 70.8721C48.2293 65.2807 49.9089 55.3604 56.6784 49.8561C63.4266 55.3475 65.1153 65.27 65.5143 70.8662C63.1485 68.6641 60.0062 67.3871 56.679 67.3871ZM78.6945 67.3871C75.2667 67.3871 72.0362 68.7422 69.6479 71.0673C69.5287 69.1005 69.2624 66.585 68.6897 63.8497C67.5062 58.2037 65.3854 53.4759 62.4554 49.8796C73.1501 51.8695 81.9677 59.2983 85.7351 69.4668C83.672 68.1325 81.2372 67.3871 78.6945 67.3871Z" fill="#00E1BE"/>
<path d="M63.3973 82.6753H49.9621V90.4052H42.2321V103.84H49.9621V111.57H63.3973V103.84H71.1273V90.4052H63.3973V82.6753ZM67.0257 94.5068V99.7384H59.2957V107.468H54.0637V99.7384H46.3337V94.5068H54.0637V86.7769H59.2957V94.5068H67.0257Z" fill="#00E1BE"/>
<defs>
<linearGradient id="paint0_linear_1_137" x1="-60.0226" y1="132.441" x2="92.7477" y2="28.1835" gradientUnits="userSpaceOnUse">
<stop stop-color="#003478"/>
<stop offset="1" stop-color="white"/>
</linearGradient>
</defs>
</svg>
