<svg width="30" height="32" viewBox="0 0 30 32" fill="none" xmlns="http://www.w3.org/2000/svg">
<path opacity="0.2" d="M1.25 11.9219V2.75C1.25 2.4185 1.3817 2.1005 1.6161 1.8661C1.8505 1.6317 2.1685 1.5 2.5 1.5H27.5C27.8315 1.5 28.1495 1.6317 28.3839 1.8661C28.6183 2.1005 28.75 2.4185 28.75 2.75V11.9219C28.75 25.0469 17.6094 29.3906 15.3906 30.125C15.1386 30.2183 14.8614 30.2183 14.6094 30.125C12.3906 29.3906 1.25 25.0469 1.25 11.9219Z" fill="#845CF5"/>
<path d="M1.25 11.9219V2.75C1.25 2.4185 1.3817 2.1005 1.6161 1.8661C1.8505 1.6317 2.1685 1.5 2.5 1.5H27.5C27.8315 1.5 28.1495 1.6317 28.3839 1.8661C28.6183 2.1005 28.75 2.4185 28.75 2.75V11.9219C28.75 25.0469 17.6094 29.3906 15.3906 30.125C15.1386 30.2183 14.8614 30.2183 14.6094 30.125C12.3906 29.3906 1.25 25.0469 1.25 11.9219Z" stroke="#845CF5" stroke-width="2" stroke-linecap="round" stroke-linejoin="round"/>
<path d="M21.875 10.25L12.7031 19L8.125 14.625" stroke="#845CF5" stroke-width="2" stroke-linecap="round" stroke-linejoin="round"/>
</svg>
