<svg width="27" height="33" viewBox="0 0 27 33" fill="none" xmlns="http://www.w3.org/2000/svg">
<path d="M13.5333 0.199951C10.1927 0.20384 6.99006 1.55717 4.62797 3.96299C2.26589 6.36881 0.937168 9.63081 0.93335 13.0333C0.93335 16.4457 2.27918 20.2374 4.52717 23.1687C6.231 25.3853 8.27862 26.9166 10.4406 27.6749L9.03736 31.2624C8.9668 31.4403 8.94023 31.6332 8.96024 31.8239C8.98024 32.0148 9.04607 32.1976 9.15206 32.3562C9.25592 32.5141 9.39658 32.6432 9.56153 32.7324C9.72632 32.8213 9.91035 32.8675 10.097 32.8666H16.9697C17.1563 32.8675 17.3404 32.8213 17.5052 32.7324C17.6701 32.6432 17.8108 32.5141 17.9148 32.3562C18.0206 32.1976 18.0865 32.0148 18.1065 31.8239C18.1265 31.6332 18.0999 31.4403 18.0292 31.2624L16.6261 27.6749C18.7881 26.9166 20.8355 25.3853 22.5395 23.1687C24.7874 20.2374 26.1334 16.4457 26.1334 13.0333C26.1295 9.63081 24.8008 6.36881 22.4387 3.96299C20.0766 1.55717 16.874 0.20384 13.5333 0.199951ZM20.5063 13.0187H20.3059C20.035 13.016 19.7735 12.9169 19.5668 12.7383C19.3602 12.5599 19.2215 12.3134 19.1746 12.0416C18.9811 10.8482 18.4255 9.74655 17.5858 8.89115C16.7461 8.0359 15.6644 7.46999 14.4926 7.2729C14.1915 7.21939 13.9231 7.04688 13.7461 6.79286C13.5691 6.53884 13.4978 6.22384 13.5477 5.91661C13.5718 5.76573 13.6253 5.62122 13.705 5.49164C13.7846 5.3619 13.8887 5.24975 14.0112 5.16155C14.1339 5.07335 14.2726 5.01082 14.419 4.97768C14.5656 4.94455 14.7171 4.94159 14.865 4.96866C16.5082 5.24897 18.0244 6.04448 19.2026 7.24444C20.3807 8.44439 21.1618 9.98875 21.437 11.6624C21.4657 11.814 21.4643 11.9699 21.4329 12.1208C21.4014 12.2718 21.3403 12.4148 21.2536 12.5413C21.1668 12.6677 21.0559 12.7752 20.9275 12.8572C20.7992 12.9392 20.6559 12.9941 20.5063 13.0187Z" fill="#188BFE"/>
</svg>
