<svg width="120" height="30" viewBox="0 0 120 30" fill="none" xmlns="http://www.w3.org/2000/svg">
<path d="M39.1336 11.7448C39.1336 9.59077 37.0671 7.33173 33.4753 7.33173C29.4473 7.33173 25.0248 10.2975 24.3477 16.217C23.6556 22.1944 27.3593 24.8506 31.0924 24.8506C34.8256 24.8506 36.7804 23.3899 38.7795 21.4419C37.0604 19.2744 34.8404 20.276 34.415 20.4968C33.7108 20.8892 32.9133 21.0832 32.1075 21.0582C30.667 21.0582 29.1969 20.4092 29.1969 17.7087C38.4269 16.7933 39.1323 13.8853 39.1323 11.7448H39.1336ZM34.559 12.0988C34.4998 12.7625 34.236 13.8987 29.5617 14.5356C30.5445 11.0218 32.4293 10.758 33.2949 10.758C33.4703 10.7499 33.6454 10.7798 33.8083 10.8455C33.9712 10.9111 34.118 11.0111 34.2389 11.1386C34.3597 11.266 34.4516 11.418 34.5085 11.5841C34.5654 11.7503 34.5858 11.9268 34.5684 12.1015L34.559 12.0988ZM18.9263 12.6751L16.7804 19.4494L15.2658 7.68714C11.8867 7.68714 10.0693 10.1077 9.12147 12.6602L6.50434 19.4642L6.13681 12.7329C5.93757 9.60421 3.08081 7.7006 0.771973 7.7006L3.56411 24.7173C7.10478 24.7039 9.01646 22.2967 10.0168 19.7442L12.23 13.9593C12.2502 14.1949 13.7593 24.7186 13.7593 24.7186C17.3161 24.7186 19.2278 22.461 20.2523 19.996L25.2335 7.70195C21.7265 7.70195 19.8781 10.1077 18.9236 12.6751H18.9263ZM52.1869 7.28999C49.9966 7.28999 48.3232 8.48546 46.9096 10.241V10.2275L48.1724 0C45.2618 0 42.8951 2.53904 42.44 6.31665L40.251 24.5854C41.9271 24.5854 43.7055 24.098 44.6614 22.8581C45.5149 23.9647 46.7924 24.8506 48.6894 24.8506C53.5978 24.8506 56.9648 19.125 56.9648 13.752C56.9352 8.85165 54.5684 7.30346 52.2018 7.30346L52.1869 7.28999ZM51.7292 16.0716C51.2176 19.0671 49.5537 21.1039 47.953 21.1039C46.3522 21.1039 45.6455 20.381 45.6455 20.381C45.9551 17.7558 46.1463 16.1457 46.7333 14.7577C47.3202 13.3697 48.7177 11.1565 50.1729 11.1565C51.6 11.1565 52.2462 13.06 51.7306 16.0703L51.7292 16.0716ZM69.2064 7.68848H65.7815L65.795 7.51078C66.0305 5.26792 66.5596 4.08724 68.3043 3.89473C69.4958 3.77626 70.0249 3.15698 70.1568 2.47846L70.5836 0.102316C63.7177 0.0578894 61.5448 3.03716 60.9915 7.58483L60.9781 7.68848H60.904C59.7866 7.68848 58.5534 8.95799 58.3461 10.5668L58.2721 11.1565H60.566L58.6409 27.123L58.0512 29.9866C58.1253 29.9866 58.2128 30 58.2855 30C61.5031 29.8815 63.5629 27.3291 64.0179 23.6242L65.5203 11.1538H66.5973C67.6555 11.1538 68.8913 10.0902 69.1067 8.31985L69.2064 7.68848ZM87.0201 7.39231C83.0661 7.39231 79.3329 10.3137 78.1886 14.9045C77.0443 19.4952 78.7782 24.9246 84.5968 24.9246C90.415 24.9246 93.7475 19.2704 93.7475 14.5638C93.7528 9.88556 90.5941 7.39096 87.0214 7.39096L87.0201 7.39231ZM88.6218 15.9222C88.4172 18.0035 87.5047 21.1618 85.0061 21.1618C82.5074 21.1618 82.8453 17.4731 83.0876 15.7162C83.3528 13.8423 84.3962 11.1712 86.6444 11.1712C88.6666 11.1712 88.8563 13.577 88.6236 15.9235L88.6218 15.9222ZM113.285 12.6602L111.14 19.4346C111.082 18.9028 109.627 7.67233 109.627 7.67233C106.247 7.67233 104.438 10.0929 103.49 12.6454L100.873 19.4494C100.86 18.9621 100.506 12.7181 100.506 12.7181C100.293 9.58937 97.4392 7.6858 95.1209 7.6858L97.8976 24.7025C101.438 24.689 103.35 22.282 104.35 19.7294L106.556 13.9446C106.569 14.1802 108.085 24.7039 108.085 24.7039C111.642 24.7039 113.545 22.4462 114.578 19.9812L119.563 7.68714C116.065 7.68714 114.213 10.0929 113.272 12.6602H113.285ZM72.4401 0.0996255L69.5591 23.4303L68.9695 26.3086C69.0421 26.3086 69.1309 26.3221 69.2037 26.3221C72.3028 26.2777 74.5079 23.5488 74.9212 20.1091L76.5811 6.72322C77.0847 2.63463 74.66 0.0969314 72.4401 0.0969314V0.0996255Z" fill="#4152FF"/>
</svg>
