<svg width="91" height="30" viewBox="0 0 91 30" fill="none" xmlns="http://www.w3.org/2000/svg">
<path d="M11.1996 0H12.0082C14.8156 0.061683 17.5773 1.20282 19.5608 3.22294C18.8285 3.97856 18.0808 4.70333 17.3637 5.45895C16.2499 4.44118 14.9072 3.65472 13.4425 3.37715C11.2759 2.91452 8.94147 3.33088 7.12579 4.57996C5.14228 5.89073 3.79961 8.11131 3.50971 10.4861C3.18931 12.8301 3.84538 15.2974 5.35589 17.117C6.80537 18.8904 9.01775 20.0007 11.3064 20.0778C13.4425 20.2012 15.6701 19.5381 17.2264 18.0269C18.447 16.9628 19.0115 15.3436 19.1946 13.7707C16.6619 13.7707 14.1291 13.7861 11.5963 13.7707V10.594H22.2614C22.8107 14.0021 22.0173 17.8418 19.454 20.2783C17.7451 22.0054 15.3802 23.0232 12.9695 23.2237C10.6351 23.455 8.22437 23.0078 6.1493 21.8667C3.66229 20.525 1.67879 18.2582 0.702298 15.5904C-0.213164 13.1385 -0.228421 10.3627 0.62601 7.89543C1.40415 5.64399 2.8994 3.65472 4.82188 2.26685C6.66806 0.894402 8.9109 0.138787 11.1996 0Z" fill="#DD4B39"/>
<path d="M72.3835 0.801758H75.6487V22.8226C74.5654 22.8226 73.4669 22.838 72.3835 22.8071C72.3989 15.4823 72.3835 8.14204 72.3835 0.801758Z" fill="#DD4B39"/>
<path d="M29.5239 8.4356C31.5378 8.05012 33.7197 8.48188 35.3828 9.70015C36.8934 10.7796 37.9461 12.4758 38.2665 14.3263C38.6785 16.4697 38.1597 18.8137 36.7865 20.51C35.3065 22.4067 32.8805 23.4245 30.5156 23.2703C28.349 23.1469 26.2434 22.052 24.9618 20.2632C23.5123 18.2894 23.1614 15.5754 23.9548 13.2622C24.7481 10.7796 26.991 8.88284 29.5239 8.4356ZM29.9816 11.3656C29.1576 11.5814 28.3947 12.0595 27.8455 12.738C26.3655 14.5268 26.4571 17.4413 28.0896 19.1067C29.0203 20.0628 30.424 20.51 31.721 20.2478C32.9263 20.0319 33.9791 19.2146 34.5589 18.1352C35.5659 16.3001 35.276 13.7712 33.735 12.3371C32.7432 11.4118 31.2938 11.0263 29.9816 11.3656Z" fill="#DD4B39"/>
<path d="M45.6972 8.43531C48.0012 7.98807 50.5187 8.63575 52.2428 10.2704C55.0503 12.8148 55.3554 17.5798 52.9599 20.5097C51.5104 22.3603 49.1608 23.378 46.8416 23.2701C44.6292 23.2084 42.4474 22.0981 41.1352 20.263C39.6552 18.2429 39.3348 15.4672 40.174 13.1078C41.0132 10.7021 43.2103 8.86707 45.6972 8.43531ZM46.155 11.3653C45.3311 11.5811 44.5682 12.0592 44.0189 12.7223C42.5542 14.4802 42.6152 17.3485 44.1868 19.0294C45.1175 20.0317 46.567 20.5252 47.9096 20.2476C49.0997 20.0163 50.1678 19.2144 50.7475 18.135C51.7393 16.2845 51.4494 13.7555 49.8931 12.3214C48.9014 11.3961 47.4519 11.026 46.155 11.3653Z" fill="#DD4B39"/>
<path d="M59.4146 9.32917C61.1692 8.21894 63.5037 7.91049 65.3956 8.86653C65.9907 9.12873 66.479 9.57589 66.9519 10.0231C66.9672 9.60677 66.9519 9.17501 66.9672 8.74317C67.9894 8.75865 69.0117 8.74317 70.0493 8.75865V22.3597C70.0339 24.4107 69.5152 26.585 68.0505 28.0808C66.4484 29.7308 63.9919 30.2397 61.7796 29.9005C59.4146 29.5458 57.3548 27.8032 56.4394 25.5981C57.3548 25.1508 58.316 24.7961 59.262 24.3798C59.796 25.6443 60.8794 26.7238 62.2373 26.9705C63.5953 27.2172 65.1668 26.878 66.0517 25.7368C66.9977 24.5648 66.9977 22.9611 66.9519 21.527C66.25 22.2209 65.4414 22.8377 64.4649 23.069C62.3441 23.6704 60.0096 22.9303 58.3771 21.4807C56.7293 20.0312 55.7528 17.7952 55.8443 15.5746C55.8901 13.061 57.2938 10.6399 59.4146 9.32917ZM62.573 11.3031C61.6423 11.4572 60.7725 11.9816 60.1775 12.7063C58.7432 14.4334 58.7432 17.1938 60.1927 18.8901C61.0167 19.8924 62.3441 20.4475 63.6257 20.3088C64.8311 20.1854 65.9449 19.4144 66.54 18.3503C67.547 16.5461 67.3791 14.0942 66.0212 12.5213C65.182 11.5498 63.8393 11.0718 62.573 11.3031Z" fill="#DD4B39"/>
<path d="M79.5695 10.116C81.4003 8.3889 84.2234 7.8029 86.5725 8.71269C88.8003 9.56089 90.2198 11.7044 90.9363 13.9095C87.6257 15.2974 84.3303 16.6698 81.0189 18.0577C81.4769 18.9367 82.1783 19.7386 83.1246 20.0624C84.4516 20.5404 86.0386 20.3708 87.1525 19.4764C87.5954 19.1371 87.9457 18.6899 88.2816 18.2582C89.121 18.8287 89.9596 19.3839 90.7991 19.9544C89.6094 21.7587 87.6105 23.0232 85.4593 23.2236C83.0791 23.5166 80.5457 22.5914 79.0049 20.7101C76.4722 17.7493 76.7163 12.7838 79.5695 10.116ZM81.2024 12.9688C80.683 13.7245 80.4699 14.6497 80.4851 15.5595C82.6969 14.6343 84.9096 13.7091 87.1222 12.7684C86.756 11.9048 85.8711 11.3805 84.971 11.2417C83.5212 10.9796 82.0107 11.766 81.2024 12.9688Z" fill="#DD4B39"/>
</svg>
