<svg width="48" height="49" viewBox="0 0 48 49" fill="none" xmlns="http://www.w3.org/2000/svg">
<path d="M39.8373 4.20137L39.8325 4.35545H39.9866H45.9263C46.5877 4.35545 47.133 4.91293 47.133 5.61234C47.133 11.8901 45.5509 17.8056 42.6856 22.2713C39.853 26.6861 36.0948 29.1972 32.0544 29.4415L31.9927 29.4452L31.9516 29.4915C31.0297 30.5318 30.0569 31.3781 29.0465 32.0218L28.9774 32.0659V32.1478V38.398V38.5474H29.1268H31.4017C34.0643 38.5474 36.2396 40.7956 36.2396 43.57V45.9292V46.0785H36.3889H36.4853C37.1467 46.0785 37.692 46.6364 37.692 47.3354C37.692 48.0349 37.1468 48.5923 36.4853 48.5923H11.7937C11.1322 48.5923 10.587 48.0349 10.587 47.3354C10.587 46.6364 11.1323 46.0785 11.7937 46.0785H11.8901H12.0394V45.9292V43.57C12.0394 40.7956 14.2147 38.5474 16.8773 38.5474H19.1522H19.3016V38.398V32.1478V32.0659L19.2325 32.0219C18.2221 31.3778 17.2497 30.5318 16.3277 29.4915L16.2867 29.4452L16.2249 29.4415C12.1842 29.1972 8.42602 26.6861 5.59372 22.2713L5.468 22.352L5.59372 22.2713C2.72844 17.8056 1.14601 11.89 1.14601 5.61234C1.14601 4.91293 1.69125 4.35545 2.35267 4.35545H8.29235H8.44651L8.44164 4.20137C8.42015 3.52052 8.40817 2.83581 8.40817 2.14796C8.40817 1.44857 8.95373 0.891068 9.61483 0.891068H38.6642C39.3253 0.891068 39.8708 1.44857 39.8708 2.14796C39.8708 2.83581 39.8588 3.52051 39.8373 4.20137ZM3.7373 6.86923H3.58171L3.58805 7.02469C3.80186 12.2671 5.20497 17.142 7.60021 20.8748C9.33208 23.5743 11.4418 25.4459 13.734 26.3436L14.1361 26.5011L13.9173 26.1288C13.5271 25.4653 13.1508 24.7603 12.7909 24.0138L12.6564 24.0787L12.7909 24.0138C10.5301 19.3251 9.08079 13.4114 8.59278 7.00725L8.58226 6.86923H8.44384H3.7373ZM33.6769 46.0789H33.8263V45.9295V43.57C33.8263 42.1919 32.7439 41.0611 31.4017 41.0611H16.8773C15.5351 41.0611 14.4527 42.1919 14.4527 43.57V45.9295V46.0789H14.6021H33.6769ZM26.4147 38.5474H26.5641V38.398V33.3699V33.1742L26.3754 33.2258C25.6422 33.426 24.8959 33.53 24.1395 33.53C23.3831 33.53 22.6368 33.426 21.9036 33.2258L21.7149 33.1742V33.3699V38.398V38.5474H21.8643H26.4147ZM27.313 30.1616L27.3198 30.1587L27.3263 30.1551C28.4093 29.5609 29.4521 28.6676 30.434 27.4996L30.4392 27.4935L30.4437 27.4867C30.489 27.4193 30.5409 27.3566 30.5982 27.2998L30.6039 27.2941L30.609 27.2878C31.5831 26.0881 32.4977 24.6151 33.3315 22.8856C35.8347 17.6938 37.277 10.8754 37.4416 3.55758L37.445 3.40485H37.2923H10.9867H10.834L10.8374 3.55757C11.0016 10.8754 12.4439 17.6934 14.9475 22.8856C15.7813 24.6151 16.6959 26.0881 17.6704 27.2879L17.6753 27.2939L17.6808 27.2995C17.7378 27.3562 17.7892 27.4187 17.8352 27.4868L17.8396 27.4933L17.8447 27.4993C18.8266 28.6669 19.869 29.5606 20.952 30.1544L20.9517 30.155L20.9645 30.1605C21.0188 30.184 21.0712 30.2119 21.1223 30.2438L21.122 30.2443L21.133 30.2499C22.1098 30.7532 23.1176 31.0162 24.1395 31.0162C25.1617 31.0162 26.1699 30.7532 27.1471 30.2492L27.1473 30.2496L27.1573 30.2434C27.2083 30.2118 27.2601 30.1841 27.313 30.1616ZM34.3617 26.1288L34.1428 26.5011L34.545 26.3436C36.8372 25.4459 38.9469 23.5743 40.6788 20.8748C43.074 17.142 44.4771 12.2671 44.6909 7.02469L44.6973 6.86923H44.5417H39.8352H39.6967L39.6862 7.00725C39.1978 13.4114 37.7489 19.3251 35.4881 24.0138L35.6226 24.0787L35.4881 24.0138C35.1282 24.7603 34.7519 25.4653 34.3617 26.1288Z" fill="#00E1BE" stroke="white" stroke-width="0.298738"/>
</svg>
