<svg width="106" height="112" viewBox="0 0 106 112" fill="none" xmlns="http://www.w3.org/2000/svg">
<path d="M49.0168 2.29969C51.4816 0.876637 54.5184 0.876636 56.9832 2.29969L94.2919 23.8399C96.7567 25.263 98.2751 27.8929 98.2751 30.739V73.8194C98.2751 76.6655 96.7567 79.2954 94.2919 80.7185L56.9832 102.259C54.5184 103.682 51.4816 103.682 49.0168 102.259L11.7081 80.7185C9.24329 79.2954 7.72491 76.6655 7.72491 73.8194V30.739C7.72491 27.8929 9.24328 25.263 11.7081 23.8399L49.0168 2.29969Z" fill="url(#paint0_linear_1_121)" fill-opacity="0.2"/>
<path d="M87.2118 78.7948H63.9391V66.9449C64.4812 67.1462 64.9945 67.4293 65.4609 67.7939C66.2679 68.4246 66.8997 69.2565 67.2881 70.1997C67.6134 70.9903 68.384 71.5063 69.2388 71.5061C70.0938 71.506 70.8642 70.9897 71.1893 70.1991C71.8817 68.5159 73.3247 67.2739 75.148 66.7917C76.9679 66.3103 78.8317 66.6758 80.2623 67.7939C81.0691 68.4245 81.7009 69.2564 82.0894 70.2C82.4729 71.1312 83.4612 71.6619 84.4493 71.466C85.4371 71.2706 86.1493 70.4039 86.1493 69.3967V63.8772C86.1496 50.4718 75.2434 39.5657 61.838 39.5657C61.8221 39.5657 61.8064 39.5662 61.7905 39.5662C61.7861 39.5664 61.7819 39.5662 61.7776 39.5664C48.3999 39.5993 37.5265 50.4921 37.5265 63.8772V69.3967C37.5265 70.404 38.2386 71.2708 39.2269 71.4662C39.3642 71.4932 39.5013 71.5064 39.6369 71.5064C40.4778 71.5063 41.2569 71.0013 41.5866 70.1991C42.2791 68.5159 43.722 67.2739 45.5455 66.7917C47.3649 66.3099 49.2289 66.6758 50.6595 67.7939C51.4664 68.4246 52.0982 69.2565 52.4867 70.2C52.8121 70.9903 53.5825 71.5061 54.4372 71.5061H54.4376C55.2926 71.506 56.063 70.9897 56.3881 70.199C56.9988 68.7139 58.1947 67.573 59.7202 66.9936V78.7948H36.4642C35.2993 78.7948 34.3548 79.7393 34.3548 80.9042V109.456C34.3548 110.621 35.2993 111.566 36.4642 111.566H87.2117C88.3766 111.566 89.3211 110.621 89.3211 109.456V80.9042C89.3212 79.7393 88.3768 78.7948 87.2118 78.7948V78.7948ZM81.9308 63.824C79.6074 62.3981 76.8009 61.9907 74.0696 62.7131C73.0896 62.9724 72.1735 63.3638 71.3402 63.8681V61.589C71.3402 55.4449 69.6015 49.4571 66.3777 44.3016C75.2612 46.3611 81.9063 54.3288 81.9308 63.824ZM47.1336 62.3628C46.2495 62.3628 45.3542 62.4783 44.4669 62.713C43.4901 62.9713 42.5765 63.3598 41.7452 63.8616C41.7528 54.3553 48.3964 46.3725 57.2843 44.3052C54.0696 49.4557 52.3359 55.4356 52.3359 61.5698V63.8314C50.7652 62.865 48.9742 62.3628 47.1336 62.3628ZM56.5547 63.8581V61.5697C56.5547 55.6401 58.4149 49.8756 61.8309 45.0873C65.2579 49.8838 67.1214 55.6528 67.1214 61.5888V63.8194C64.7997 62.3974 61.9969 61.9911 59.2681 62.7128C58.2943 62.9706 57.3839 63.3586 56.5547 63.8581ZM85.1025 107.347H38.5736V83.0136H85.1023V107.347H85.1025Z" fill="#00E1BE"/>
<path d="M61.8391 102.972C66.1337 102.972 69.6279 99.4781 69.6279 95.1834C69.6279 90.8887 66.1337 87.3948 61.8391 87.3948C57.5444 87.3948 54.0503 90.8889 54.0503 95.1836C54.0503 99.4783 57.5444 102.972 61.8391 102.972ZM61.8391 91.6135C63.8075 91.6135 65.4091 93.2151 65.4091 95.1836C65.4091 97.152 63.8075 98.7535 61.8391 98.7535C59.8706 98.7535 58.269 97.1519 58.269 95.1834C58.269 93.215 59.8706 91.6135 61.8391 91.6135Z" fill="#00E1BE"/>
<path d="M44.0402 97.2903H48.5869C49.7518 97.2903 50.6963 96.3458 50.6963 95.1809C50.6963 94.016 49.7518 93.0715 48.5869 93.0715H44.0402C42.8753 93.0715 41.9308 94.016 41.9308 95.1809C41.9308 96.3458 42.8751 97.2903 44.0402 97.2903Z" fill="#00E1BE"/>
<path d="M75.0895 97.2827H79.6361C80.8011 97.2827 81.7455 96.3383 81.7455 95.1733C81.7455 94.0084 80.8011 93.064 79.6361 93.064H75.0895C73.9245 93.064 72.9801 94.0084 72.9801 95.1733C72.9801 96.3383 73.9245 97.2827 75.0895 97.2827Z" fill="#00E1BE"/>
<defs>
<linearGradient id="paint0_linear_1_121" x1="-60.0226" y1="132.441" x2="92.7477" y2="28.1835" gradientUnits="userSpaceOnUse">
<stop stop-color="#003478"/>
<stop offset="1" stop-color="white"/>
</linearGradient>
</defs>
</svg>
