<svg width="28" height="28" viewBox="0 0 28 28" fill="none" xmlns="http://www.w3.org/2000/svg">
<path opacity="0.2" d="M22.125 1.5C23.2853 1.5 24.3981 1.9609 25.2186 2.7814C26.0391 3.6019 26.5 4.7147 26.5 5.875C26.5 7.0353 26.0391 8.1481 25.2186 8.9686C24.3981 9.7891 23.2853 10.25 22.125 10.25H17.75V5.875C17.75 4.7147 18.2109 3.6019 19.0314 2.7814C19.8519 1.9609 20.9647 1.5 22.125 1.5Z" fill="#05D7E6"/>
<path opacity="0.2" d="M10.25 10.25H5.875C4.7147 10.25 3.6019 9.7891 2.7814 8.9686C1.9609 8.1481 1.5 7.0353 1.5 5.875C1.5 4.7147 1.9609 3.6019 2.7814 2.7814C3.6019 1.9609 4.7147 1.5 5.875 1.5C7.0353 1.5 8.1481 1.9609 8.9686 2.7814C9.7891 3.6019 10.25 4.7147 10.25 5.875V10.25Z" fill="#05D7E6"/>
<path opacity="0.2" d="M17.75 17.75H22.125C23.2853 17.75 24.3981 18.2109 25.2186 19.0314C26.0391 19.8519 26.5 20.9647 26.5 22.125C26.5 23.2853 26.0391 24.3981 25.2186 25.2186C24.3981 26.0391 23.2853 26.5 22.125 26.5C20.9647 26.5 19.8519 26.0391 19.0314 25.2186C18.2109 24.3981 17.75 23.2853 17.75 22.125V17.75Z" fill="#05D7E6"/>
<path opacity="0.2" d="M5.875 26.5C4.7147 26.5 3.6019 26.0391 2.7814 25.2186C1.9609 24.3981 1.5 23.2853 1.5 22.125C1.5 20.9647 1.9609 19.8519 2.7814 19.0314C3.6019 18.2109 4.7147 17.75 5.875 17.75H10.25V22.125C10.25 23.2853 9.7891 24.3981 8.9686 25.2186C8.1481 26.0391 7.0353 26.5 5.875 26.5Z" fill="#05D7E6"/>
<path d="M5.875 26.5C4.7147 26.5 3.6019 26.0391 2.7814 25.2186C1.9609 24.3981 1.5 23.2853 1.5 22.125C1.5 20.9647 1.9609 19.8519 2.7814 19.0314C3.6019 18.2109 4.7147 17.75 5.875 17.75H10.25V22.125C10.25 23.2853 9.7891 24.3981 8.9686 25.2186C8.1481 26.0391 7.0353 26.5 5.875 26.5Z" stroke="#05D7E6" stroke-width="2.5" stroke-linecap="round" stroke-linejoin="round"/>
<path d="M22.125 1.5C23.2853 1.5 24.3981 1.9609 25.2186 2.7814C26.0391 3.6019 26.5 4.7147 26.5 5.875C26.5 7.0353 26.0391 8.1481 25.2186 8.9686C24.3981 9.7891 23.2853 10.25 22.125 10.25H17.75V5.875C17.75 4.7147 18.2109 3.6019 19.0314 2.7814C19.8519 1.9609 20.9647 1.5 22.125 1.5Z" stroke="#05D7E6" stroke-width="2.5" stroke-linecap="round" stroke-linejoin="round"/>
<path d="M10.25 10.25H5.875C4.7147 10.25 3.6019 9.7891 2.7814 8.9686C1.9609 8.1481 1.5 7.0353 1.5 5.875C1.5 4.7147 1.9609 3.6019 2.7814 2.7814C3.6019 1.9609 4.7147 1.5 5.875 1.5C7.0353 1.5 8.1481 1.9609 8.9686 2.7814C9.7891 3.6019 10.25 4.7147 10.25 5.875V10.25Z" stroke="#05D7E6" stroke-width="2.5" stroke-linecap="round" stroke-linejoin="round"/>
<path d="M17.75 17.75H22.125C23.2853 17.75 24.3981 18.2109 25.2186 19.0314C26.0391 19.8519 26.5 20.9647 26.5 22.125C26.5 23.2853 26.0391 24.3981 25.2186 25.2186C24.3981 26.0391 23.2853 26.5 22.125 26.5C20.9647 26.5 19.8519 26.0391 19.0314 25.2186C18.2109 24.3981 17.75 23.2853 17.75 22.125V17.75Z" stroke="#05D7E6" stroke-width="2.5" stroke-linecap="round" stroke-linejoin="round"/>
<path d="M17.75 10.25H10.25V17.75H17.75V10.25Z" stroke="#05D7E6" stroke-width="2.5" stroke-linecap="round" stroke-linejoin="round"/>
</svg>
