<svg width="135" height="30" viewBox="0 0 135 30" fill="none" xmlns="http://www.w3.org/2000/svg">
<path d="M42.2653 4.69412C41.7711 2.85883 40.3241 1.41177 38.4888 0.917648C35.1359 -6.36835e-08 21.7241 0 21.7241 0C21.7241 0 8.31231 6.36835e-08 4.95937 0.882358C3.15936 1.37648 1.67701 2.85883 1.18289 4.69412C0.300537 8.04707 0.300537 15 0.300537 15C0.300537 15 0.300537 21.9883 1.18289 25.306C1.67701 27.1412 3.12407 28.5883 4.95937 29.0823C8.3476 30 21.7241 30 21.7241 30C21.7241 30 35.1359 30 38.4888 29.1177C40.3241 28.6235 41.7711 27.1765 42.2653 25.3412C43.1476 21.9883 43.1476 15.0353 43.1476 15.0353C43.1476 15.0353 43.183 8.04707 42.2653 4.69412Z" fill="#CD201F"/>
<path d="M17.4529 21.4237L28.6059 15.0002L17.4529 8.57666V21.4237Z" fill="white"/>
<path d="M62.5249 27.3181C61.6778 26.7533 61.0778 25.871 60.7249 24.6357C60.3719 23.4357 60.1955 21.8121 60.1955 19.8358V17.1181C60.1955 15.1063 60.4072 13.4827 60.7955 12.2474C61.219 11.0122 61.8543 10.1298 62.7014 9.56511C63.5837 9.0004 64.7131 8.71804 66.1248 8.71804C67.5013 8.71804 68.6307 9.0004 69.4778 9.56511C70.3248 10.1298 70.9249 11.0475 71.3131 12.2474C71.7013 13.4475 71.9131 15.071 71.9131 17.1181V19.8358C71.9131 21.8475 71.7367 23.4357 71.3484 24.671C70.9601 25.871 70.3602 26.7887 69.5132 27.3533C68.666 27.918 67.5013 28.2004 66.0543 28.2004C64.5719 28.1651 63.3719 27.8827 62.5249 27.3181ZM67.2895 24.3534C67.5367 23.7534 67.6425 22.7298 67.6425 21.3534V15.4945C67.6425 14.1533 67.5367 13.1651 67.2895 12.5298C67.0425 11.8945 66.6542 11.6121 66.0543 11.6121C65.4895 11.6121 65.066 11.9298 64.8543 12.5298C64.6072 13.1651 64.5014 14.1533 64.5014 15.4945V21.3534C64.5014 22.7298 64.6072 23.7534 64.8543 24.3534C65.066 24.9533 65.4895 25.271 66.0896 25.271C66.6542 25.271 67.0425 24.9887 67.2895 24.3534ZM127.678 19.871V20.8239C127.678 22.0239 127.713 22.9416 127.784 23.5416C127.854 24.1416 127.995 24.6004 128.243 24.8474C128.454 25.1298 128.807 25.271 129.302 25.271C129.936 25.271 130.361 25.0239 130.607 24.5298C130.854 24.0358 130.96 23.224 130.995 22.0593L134.631 22.271C134.666 22.4474 134.666 22.6592 134.666 22.9416C134.666 24.671 134.207 25.9769 133.254 26.8239C132.302 27.671 130.96 28.0945 129.231 28.0945C127.149 28.0945 125.701 27.424 124.854 26.118C124.008 24.8122 123.583 22.8004 123.583 20.0475V16.7651C123.583 13.9415 124.008 11.8945 124.889 10.5887C125.772 9.28275 127.255 8.64745 129.337 8.64745C130.784 8.64745 131.913 8.92981 132.69 9.45923C133.466 9.98866 133.995 10.8357 134.313 11.9298C134.631 13.0592 134.772 14.6122 134.772 16.5887V19.8004H127.678V19.871ZM128.208 11.9651C127.995 12.2474 127.854 12.671 127.784 13.271C127.713 13.871 127.678 14.7887 127.678 16.0239V17.3651H130.784V16.0239C130.784 14.8239 130.748 13.9063 130.678 13.271C130.607 12.6357 130.431 12.2122 130.22 11.9651C130.007 11.718 129.654 11.5769 129.231 11.5769C128.737 11.5416 128.419 11.6828 128.208 11.9651ZM52.219 19.5181L47.4189 2.11804H51.619L53.3131 9.98866C53.7366 11.9298 54.0542 13.5886 54.266 14.9651H54.3719C54.5131 13.9769 54.8308 12.3533 55.3248 10.0239L57.0895 2.11804H61.2895L56.419 19.5181V27.8475H52.2542V19.5181H52.219ZM85.5719 9.07099V27.8828H82.2543L81.9013 25.5886H81.7954C80.9131 27.3181 79.5367 28.2004 77.7367 28.2004C76.5013 28.2004 75.5837 27.7769 74.9837 26.9651C74.3837 26.1534 74.1013 24.8828 74.1013 23.1181V9.07099H78.3367V22.871C78.3367 23.7181 78.4425 24.318 78.619 24.671C78.7955 25.0239 79.1131 25.2005 79.5367 25.2005C79.8896 25.2005 80.2426 25.0946 80.5955 24.8474C80.9484 24.6357 81.1955 24.3534 81.3366 24.0004V9.07099H85.5719ZM107.278 9.07099V27.8828H103.96L103.607 25.5886H103.501C102.619 27.3181 101.243 28.2004 99.4425 28.2004C98.2073 28.2004 97.2896 27.7769 96.6896 26.9651C96.0897 26.1534 95.8073 24.8828 95.8073 23.1181V9.07099H100.043V22.871C100.043 23.7181 100.148 24.318 100.325 24.671C100.501 25.0239 100.819 25.2005 101.243 25.2005C101.595 25.2005 101.948 25.0946 102.301 24.8474C102.654 24.6357 102.901 24.3534 103.043 24.0004V9.07099H107.278Z" fill="#CD201F"/>
<path d="M97.0785 5.542H92.8785V27.8479H88.7491V5.542H84.5491V2.11846H97.0785V5.542ZM121.291 12.0714C121.043 10.8714 120.62 10.0243 120.054 9.49494C119.49 8.96553 118.678 8.68317 117.69 8.68317C116.913 8.68317 116.173 8.89494 115.502 9.35377C114.831 9.77729 114.302 10.3773 113.949 11.0832H113.914V1.16553H109.82V27.8479H113.314L113.737 26.0832H113.844C114.161 26.7185 114.655 27.2126 115.326 27.6008C115.997 27.9538 116.702 28.1656 117.514 28.1656C118.96 28.1656 119.984 27.4949 120.655 26.1891C121.326 24.8832 121.678 22.8009 121.678 20.0126V17.0479C121.643 14.895 121.537 13.2361 121.291 12.0714ZM117.408 19.7303C117.408 21.1068 117.337 22.1656 117.232 22.942C117.126 23.7185 116.913 24.2832 116.666 24.6008C116.384 24.9185 116.032 25.095 115.608 25.095C115.255 25.095 114.938 25.0244 114.655 24.8479C114.373 24.6715 114.126 24.4243 113.949 24.1067V13.4479C114.09 12.9538 114.337 12.5302 114.69 12.1773C115.044 11.8597 115.431 11.6832 115.819 11.6832C116.243 11.6832 116.596 11.8597 116.807 12.1773C117.055 12.5302 117.196 13.0949 117.302 13.8714C117.408 14.6832 117.443 15.8126 117.443 17.2596V19.7303H117.408Z" fill="#CD201F"/>
</svg>
