<svg width="32" height="32" viewBox="0 0 32 32" fill="none" xmlns="http://www.w3.org/2000/svg">
<path fill-rule="evenodd" clip-rule="evenodd" d="M20 16.0076C20 17.1962 19.7821 18.3337 19.3859 19.3851C18.3058 19.792 17.1611 20.0003 16.0069 20H15.9931C14.8395 20.0005 13.6953 19.7924 12.6156 19.3859C12.2083 18.3059 11.9998 17.1611 12 16.0069V15.9931C11.9998 14.8395 12.2078 13.6953 12.6141 12.6156C13.6941 12.2083 14.8389 11.9997 15.9931 12H16.0069C17.1962 12 18.3352 12.2187 19.3851 12.6156C19.7813 13.6655 19.9992 14.8038 20 15.9931V16.0069V16.0076ZM31.7775 13.3333H22.4381L29.0423 6.72914C28.0038 5.27087 26.7291 3.99621 25.2709 2.95771L18.6667 9.5619V0.222476C17.7883 0.0749067 16.8991 0.000492546 16.0084 0L15.9916 0C15.1009 0.000492546 14.2117 0.0749067 13.3333 0.222476V9.5619L6.72914 2.95771C6.00169 3.47599 5.31869 4.05399 4.68724 4.68571L4.68419 4.688C4.05327 5.31955 3.47604 6.00255 2.95848 6.72991L9.5619 13.3333H0.222476C0.222476 13.3333 0 15.0872 0 15.9939V16.0053C0 16.912 0.0769524 17.8011 0.222476 18.6667H9.5619L2.95848 25.2709C3.99705 26.7291 5.2717 28.0037 6.72991 29.0423L13.3333 22.4381V31.7775C14.1973 31.9223 15.0834 31.9992 15.9886 32H16.0114C16.9166 32 17.8027 31.9223 18.6667 31.7775V22.4381L25.2709 29.0415C25.9983 28.5235 26.6813 27.9457 27.3128 27.3143L27.3143 27.3128C27.9457 26.6812 28.5234 25.9982 29.0415 25.2709L22.4381 18.6667H31.7775C31.9223 17.8027 31.9992 16.9166 32 16.0114V15.9886C32 15.0834 31.9223 14.1973 31.7775 13.3333Z" fill="#FF4A00"/>
</svg>
