<svg
                                                        viewBox="0 0 96 96"
                                                        xmlns="http://www.w3.org/2000/svg"
                                                        width="15"
                                                        height="15">
                                                <path d="M78 60a5.997 5.997 0 0 0-6 6v18H12V24h18a6 6 0 0 0 0-12H6a5.997 5.997 0 0 0-6 6v72a5.997 5.997 0 0 0 6 6h72a5.997 5.997 0 0 0 6-6V66a5.997 5.997 0 0 0-6-6Z"
                                                      fill="#fe9900" class="fill-000000"></path>
                                                <path d="m94.242 13.758-12-12a5.998 5.998 0 0 0-8.484 0l-36 36A5.996 5.996 0 0 0 36 42v12a5.997 5.997 0 0 0 6 6h12a5.996 5.996 0 0 0 4.242-1.758l36-36a5.998 5.998 0 0 0 0-8.484ZM51.516 48H48v-3.516l30-30L81.516 18Z"
                                                      fill="#fe9900" class="fill-000000"></path>
                                            </svg>