<svg width="107" height="20" viewBox="0 0 107 20" fill="none" xmlns="http://www.w3.org/2000/svg">
<path d="M19.8752 0H0V19.9837H19.8752V0Z" fill="#00D172"/>
<path d="M41.4055 0H21.5303V19.9837H41.4055V0Z" fill="#00D172"/>
<path d="M62.9387 0H43.0635V19.9837H62.9387V0Z" fill="#00D172"/>
<path d="M84.4689 0H64.5938V19.9837H84.4689V0Z" fill="#00D172"/>
<path d="M106.001 0H86.126V19.9837H106.001V0Z" fill="#00D172"/>
<path d="M9.93776 13.4685L12.9604 12.6983L14.2233 16.6118L9.93776 13.4685ZM16.8941 8.41013H11.5733L9.93776 3.37256L8.3022 8.41013H2.98145L7.28773 11.5326L5.65217 16.5702L9.95846 13.4477L12.6085 11.5326L16.8941 8.41013Z" fill="white"/>
<path d="M31.468 13.4685L34.4907 12.6983L35.7536 16.6118L31.468 13.4685ZM38.4243 8.41013H33.1036L31.468 3.37256L29.8325 8.41013H24.5117L28.818 11.5326L27.1824 16.5702L31.4887 13.4477L34.1388 11.5326L38.4243 8.41013Z" fill="white"/>
<path d="M53.0012 13.4685L56.0239 12.6983L57.2868 16.6118L53.0012 13.4685ZM59.9575 8.41013H54.6368L53.0012 3.37256L51.3657 8.41013H46.0449L50.3512 11.5326L48.7156 16.5702L53.0219 13.4477L55.672 11.5326L59.9575 8.41013Z" fill="white"/>
<path d="M74.5325 13.4685L77.5552 12.6983L78.8181 16.6118L74.5325 13.4685ZM81.4888 8.41013H76.168L74.5325 3.37256L72.8969 8.41013H67.5762L71.8825 11.5326L70.2469 16.5702L74.5532 13.4477L77.2032 11.5326L81.4888 8.41013Z" fill="white"/>
<path d="M96.0628 13.4685L99.0854 12.6983L100.348 16.6118L96.0628 13.4685ZM103.019 8.41013H97.6983L96.0628 3.37256L94.4272 8.41013H89.1064L93.4127 11.5326L91.7772 16.5702L96.0835 13.4477L98.7335 11.5326L103.019 8.41013Z" fill="white"/>
</svg>
