<svg width="43" height="38" viewBox="0 0 43 38" fill="none" xmlns="http://www.w3.org/2000/svg">
<path d="M0.00907893 27.3024C0.00907893 32.9165 4.55993 37.4674 10.1739 37.4674C15.788 37.4674 20.3389 32.9165 20.3389 27.3024C20.3389 21.6883 15.788 17.1375 10.1739 17.1375C9.02018 17.1375 7.91575 17.3387 6.88184 17.6931C9.16937 4.57353 19.4001 -3.88712 9.91624 3.07616C-0.599954 10.7977 -0.00218389 26.9918 0.00958324 27.2885C0.00958324 27.2932 0.00907893 27.2973 0.00907893 27.3024Z" fill="#ECECEC"/>
<path d="M22.3717 27.3025C22.3717 32.9166 26.9225 37.4675 32.5366 37.4675C38.1507 37.4675 42.7016 32.9166 42.7016 27.3025C42.7016 21.6884 38.1506 17.1377 32.5365 17.1377C31.3827 17.1377 30.2783 17.3388 29.2444 17.6932C31.532 4.57365 41.7627 -3.887 32.2788 3.07629C21.7626 10.7978 22.3603 26.9919 22.3722 27.2887C22.3722 27.2933 22.3717 27.2974 22.3717 27.3025Z" fill="#ECECEC"/>
</svg>
